<svg xmlns="http://www.w3.org/2000/svg" width="120" height="120" viewBox="0 0 120 120"><polygon points="60.00,30.00 85.98,45.00 85.98,75.00 60.00,90.00 34.02,75.00 34.02,45.00" fill="#000000" stroke="#000000" stroke-width="48" stroke-linejoin="round" stroke-linecap="round" paint-order="stroke fill"/><g transform="translate(25.714285714285715 25.714285714285715) scale(2.857142857142857)"><g fill="none" stroke="#ffffff" stroke-width="2.5" stroke-linecap="round" stroke-linejoin="round"><path xmlns="http://www.w3.org/2000/svg" d="M11.146 15.854a1.207 1.207 0 0 1 1.708 0l1.56 1.56A2 2 0 0 1 15 18.828V21a1 1 0 0 1-1 1h-4a1 1 0 0 1-1-1v-2.172a2 2 0 0 1 .586-1.414z"/><path xmlns="http://www.w3.org/2000/svg" d="M18.828 15a2 2 0 0 1-1.414-.586l-1.56-1.56a1.207 1.207 0 0 1 0-1.708l1.56-1.56A2 2 0 0 1 18.828 9H21a1 1 0 0 1 1 1v4a1 1 0 0 1-1 1z"/><path xmlns="http://www.w3.org/2000/svg" d="M6.586 14.414A2 2 0 0 1 5.172 15H3a1 1 0 0 1-1-1v-4a1 1 0 0 1 1-1h2.172a2 2 0 0 1 1.414.586l1.56 1.56a1.207 1.207 0 0 1 0 1.708z"/><path xmlns="http://www.w3.org/2000/svg" d="M9 3a1 1 0 0 1 1-1h4a1 1 0 0 1 1 1v2.172a2 2 0 0 1-.586 1.414l-1.56 1.56a1.207 1.207 0 0 1-1.708 0l-1.56-1.56A2 2 0 0 1 9 5.172z"/></g></g></svg>