<svg xmlns="http://www.w3.org/2000/svg" viewBox="0 0 800 400">
  <rect width="800" height="400" fill="#F3F4F4"/>
  <g stroke="#c8d0cc" stroke-width="0.7">
    <line x1="60" y1="80"  x2="770" y2="80"  stroke-dasharray="3,4"/>
    <line x1="60" y1="160" x2="770" y2="160" stroke-dasharray="3,4"/>
    <line x1="60" y1="240" x2="770" y2="240" stroke-dasharray="3,4"/>
    <line x1="60" y1="320" x2="770" y2="320"/>
    <line x1="60" y1="60"  x2="60"  y2="330"/>
  </g>
  <path d="M60,280 C120,270 160,230 220,210 S310,195 360,175 S450,140 510,125 S590,110 650,100 S730,95 770,90"
        fill="none" stroke="#032425" stroke-width="2.5"/>
  <path d="M60,300 C130,295 180,275 240,260 S330,245 380,230 S470,215 530,200 S610,185 670,175 S740,165 770,162"
        fill="none" stroke="#032425" stroke-width="1.8" stroke-opacity="0.55"/>
  <path d="M60,310 C140,308 190,300 250,292 S340,280 395,272 S480,262 540,255 S620,245 680,238 S745,232 770,230"
        fill="none" stroke="#032425" stroke-width="1.2" stroke-opacity="0.3"/>
  <circle cx="220" cy="210" r="4" fill="#032425"/>
  <circle cx="510" cy="125" r="4" fill="#032425"/>
  <circle cx="770" cy="90"  r="4" fill="#416858"/>
</svg>
