<svg xmlns="http://www.w3.org/2000/svg" viewBox="0 0 800 400">
  <rect width="800" height="400" fill="#F3F4F4"/>
  <g opacity="0.18" fill="#032425">
    <path d="M120,80 C350,80 450,100 680,105 L680,145 C450,140 350,120 120,120 Z"/>
    <path d="M120,140 C350,140 450,170 680,185 L680,240 C450,225 350,195 120,195 Z"/>
    <path d="M120,210 C350,210 450,255 680,270 L680,310 C450,295 350,265 120,260 Z"/>
    <path d="M120,275 C350,275 450,310 680,320 L680,355 C450,345 350,310 120,310 Z"/>
  </g>
  <g fill="#032425" opacity="0.85">
    <rect x="100" y="75"  width="18" height="45"/>
    <rect x="100" y="135" width="18" height="60"/>
    <rect x="100" y="205" width="18" height="55"/>
    <rect x="100" y="270" width="18" height="45"/>
  </g>
  <g fill="#032425" opacity="0.85">
    <rect x="680" y="100" width="18" height="48"/>
    <rect x="680" y="182" width="18" height="60"/>
    <rect x="680" y="268" width="18" height="44"/>
    <rect x="680" y="318" width="18" height="40"/>
  </g>
  <g fill="#416858" opacity="0.6">
    <rect x="100" y="135" width="18" height="60"/>
    <rect x="680" y="182" width="18" height="60"/>
  </g>
</svg>
