<svg xmlns="http://www.w3.org/2000/svg" viewBox="0 0 800 400">
  <rect width="800" height="400" fill="#F3F4F4"/>
  <g stroke="#F3F4F4" stroke-width="2">
    <rect x="60"  y="50"  width="100" height="55" fill="rgba(3,36,37,0.06)"/>
    <rect x="170" y="50"  width="100" height="55" fill="rgba(3,36,37,0.12)"/>
    <rect x="280" y="50"  width="100" height="55" fill="rgba(3,36,37,0.04)"/>
    <rect x="390" y="50"  width="100" height="55" fill="rgba(3,36,37,0.18)"/>
    <rect x="500" y="50"  width="100" height="55" fill="rgba(3,36,37,0.08)"/>
    <rect x="610" y="50"  width="100" height="55" fill="rgba(3,36,37,0.22)"/>
    <rect x="720" y="50"  width="60"  height="55" fill="rgba(3,36,37,0.14)"/>
    <rect x="60"  y="115" width="100" height="55" fill="rgba(3,36,37,0.15)"/>
    <rect x="170" y="115" width="100" height="55" fill="rgba(3,36,37,0.28)"/>
    <rect x="280" y="115" width="100" height="55" fill="rgba(3,36,37,0.10)"/>
    <rect x="390" y="115" width="100" height="55" fill="rgba(3,36,37,0.35)"/>
    <rect x="500" y="115" width="100" height="55" fill="rgba(3,36,37,0.20)"/>
    <rect x="610" y="115" width="100" height="55" fill="rgba(3,36,37,0.42)"/>
    <rect x="720" y="115" width="60"  height="55" fill="rgba(3,36,37,0.25)"/>
    <rect x="60"  y="180" width="100" height="55" fill="rgba(3,36,37,0.08)"/>
    <rect x="170" y="180" width="100" height="55" fill="rgba(3,36,37,0.18)"/>
    <rect x="280" y="180" width="100" height="55" fill="rgba(3,36,37,0.30)"/>
    <rect x="390" y="180" width="100" height="55" fill="rgba(3,36,37,0.12)"/>
    <rect x="500" y="180" width="100" height="55" fill="rgba(3,36,37,0.45)"/>
    <rect x="610" y="180" width="100" height="55" fill="rgba(3,36,37,0.16)"/>
    <rect x="720" y="180" width="60"  height="55" fill="rgba(3,36,37,0.32)"/>
    <rect x="60"  y="245" width="100" height="55" fill="rgba(3,36,37,0.22)"/>
    <rect x="170" y="245" width="100" height="55" fill="rgba(3,36,37,0.10)"/>
    <rect x="280" y="245" width="100" height="55" fill="rgba(3,36,37,0.38)"/>
    <rect x="390" y="245" width="100" height="55" fill="rgba(3,36,37,0.07)"/>
    <rect x="500" y="245" width="100" height="55" fill="rgba(3,36,37,0.26)"/>
    <rect x="610" y="245" width="100" height="55" fill="rgba(3,36,37,0.50)"/>
    <rect x="720" y="245" width="60"  height="55" fill="rgba(3,36,37,0.18)"/>
    <rect x="60"  y="310" width="100" height="55" fill="rgba(3,36,37,0.30)"/>
    <rect x="170" y="310" width="100" height="55" fill="rgba(3,36,37,0.20)"/>
    <rect x="280" y="310" width="100" height="55" fill="rgba(3,36,37,0.14)"/>
    <rect x="390" y="310" width="100" height="55" fill="rgba(3,36,37,0.44)"/>
    <rect x="500" y="310" width="100" height="55" fill="rgba(3,36,37,0.09)"/>
    <rect x="610" y="310" width="100" height="55" fill="rgba(3,36,37,0.36)"/>
    <rect x="720" y="310" width="60"  height="55" fill="rgba(3,36,37,0.55)"/>
  </g>
</svg>
