<svg xmlns="http://www.w3.org/2000/svg" width="120" height="120" viewBox="0 0 120 120"><polygon points="60.00,30.00 85.98,45.00 85.98,75.00 60.00,90.00 34.02,75.00 34.02,45.00" fill="#000000" stroke="#000000" stroke-width="48" stroke-linejoin="round" stroke-linecap="round" paint-order="stroke fill"/><g transform="translate(25.714285714285715 25.714285714285715) scale(2.857142857142857)"><g fill="none" stroke="#ffffff" stroke-width="2.5" stroke-linecap="round" stroke-linejoin="round"><path xmlns="http://www.w3.org/2000/svg" d="M6 22a2 2 0 0 1-2-2V4a2 2 0 0 1 2-2h8a2.4 2.4 0 0 1 1.704.706l3.588 3.588A2.4 2.4 0 0 1 20 8v12a2 2 0 0 1-2 2z"/><path xmlns="http://www.w3.org/2000/svg" d="M14 2v5a1 1 0 0 0 1 1h5"/><path xmlns="http://www.w3.org/2000/svg" d="M10 9H8"/><path xmlns="http://www.w3.org/2000/svg" d="M16 13H8"/><path xmlns="http://www.w3.org/2000/svg" d="M16 17H8"/></g></g></svg>