<svg xmlns="http://www.w3.org/2000/svg" width="120" height="120" viewBox="0 0 120 120"><polygon points="60.00,30.00 85.98,45.00 85.98,75.00 60.00,90.00 34.02,75.00 34.02,45.00" fill="#000000" stroke="#000000" stroke-width="48" stroke-linejoin="round" stroke-linecap="round" paint-order="stroke fill"/><g transform="translate(25.714285714285715 25.714285714285715) scale(2.857142857142857)"><g fill="none" stroke="#ffffff" stroke-width="2" stroke-linecap="round" stroke-linejoin="round"><path xmlns="http://www.w3.org/2000/svg" d="m6 14 1.5-2.9A2 2 0 0 1 9.24 10H20a2 2 0 0 1 1.94 2.5l-1.54 6a2 2 0 0 1-1.95 1.5H4a2 2 0 0 1-2-2V5a2 2 0 0 1 2-2h3.9a2 2 0 0 1 1.69.9l.81 1.2a2 2 0 0 0 1.67.9H18a2 2 0 0 1 2 2v2"/></g></g></svg>